{"asset":{"version":"2.0","generator":"samdin hullgen"},"extensionsUsed":["KHR_materials_emissive_strength"],"scene":0,"scenes":[{"nodes":[0]}],"nodes":[{"mesh":0,"name":"arcwing-enemy-interceptor"}],"meshes":[{"primitives":[{"attributes":{"POSITION":0,"NORMAL":1},"material":0,"mode":4},{"attributes":{"POSITION":2,"NORMAL":3},"material":1,"mode":4},{"attributes":{"POSITION":4,"NORMAL":5},"material":2,"mode":4},{"attributes":{"POSITION":6,"NORMAL":7},"material":3,"mode":4},{"attributes":{"POSITION":8,"NORMAL":9},"material":4,"mode":4}],"name":"hull"}],"materials":[{"pbrMetallicRoughness":{"baseColorFactor":[0.25415209433082675,0.013702083047289686,0.013702083047289686,1],"metallicFactor":0.2,"roughnessFactor":0.5},"doubleSided":true},{"pbrMetallicRoughness":{"baseColorFactor":[0.06847816984440017,0.005181516702338386,0.005181516702338386,1],"metallicFactor":0.25,"roughnessFactor":0.55},"doubleSided":true},{"pbrMetallicRoughness":{"baseColorFactor":[1,0.1946178304415758,0.028426039504420793,1],"metallicFactor":0.1,"roughnessFactor":0.45},"doubleSided":true},{"pbrMetallicRoughness":{"baseColorFactor":[0.042311410620809675,0.004024717018496307,0.004024717018496307,1],"metallicFactor":0.2,"roughnessFactor":0.12},"doubleSided":true,"emissiveFactor":[0.5394794890121072,0.01599629336550963,0.01599629336550963],"extensions":{"KHR_materials_emissive_strength":{"emissiveStrength":0.4}}},{"pbrMetallicRoughness":{"baseColorFactor":[0.003035269835488375,0.010329823029626936,0.011612245179743885,1],"metallicFactor":0,"roughnessFactor":0.4},"doubleSided":true,"emissiveFactor":[1,0.26225065752969623,0.028426039504420793],"extensions":{"KHR_materials_emissive_strength":{"emissiveStrength":2.6}}},{"pbrMetallicRoughness":{"baseColorFactor":[0.003035269835488375,0.02315336617811041,0.006048833022857054,1],"metallicFactor":0,"roughnessFactor":0.4},"doubleSided":true,"emissiveFactor":[0.033104766570885055,1,0.07421356838014963],"extensions":{"KHR_materials_emissive_strength":{"emissiveStrength":2}}},{"pbrMetallicRoughness":{"baseColorFactor":[0.02315336617811041,0.003035269835488375,0.003035269835488375,1],"metallicFactor":0,"roughnessFactor":0.4},"doubleSided":true,"emissiveFactor":[1,0.033104766570885055,0.033104766570885055],"extensions":{"KHR_materials_emissive_strength":{"emissiveStrength":2}}}],"buffers":[{"byteLength":32256,"uri":"data:application/octet-stream;base64,"}],"bufferViews":[{"buffer":0,"byteOffset":0,"byteLength":7776},{"buffer":0,"byteOffset":7776,"byteLength":7776},{"buffer":0,"byteOffset":15552,"byteLength":5472},{"buffer":0,"byteOffset":21024,"byteLength":5472},{"buffer":0,"byteOffset":26496,"byteLength":576},{"buffer":0,"byteOffset":27072,"byteLength":576},{"buffer":0,"byteOffset":27648,"byteLength":864},{"buffer":0,"byteOffset":28512,"byteLength":864},{"buffer":0,"byteOffset":29376,"byteLength":1440},{"buffer":0,"byteOffset":30816,"byteLength":1440}],"accessors":[{"bufferView":0,"componentType":5126,"count":648,"type":"VEC3","min":[-1.5175000429153442,-0.10000000149011612,-1.2200000286102295],"max":[1.5175000429153442,0.3799999952316284,0.949999988079071]},{"bufferView":1,"componentType":5126,"count":648,"type":"VEC3"},{"bufferView":2,"componentType":5126,"count":456,"type":"VEC3","min":[-1.4500000476837158,-0.14000000059604645,-1.2200000286102295],"max":[1.4500000476837158,0.3199999928474426,0.6000000238418579]},{"bufferView":3,"componentType":5126,"count":456,"type":"VEC3"},{"bufferView":4,"componentType":5126,"count":48,"type":"VEC3","min":[-1.5175000429153442,-0.009999999776482582,-1.0800000429153442],"max":[1.5175000429153442,0.3799999952316284,0.44999998807907104]},{"bufferView":5,"componentType":5126,"count":48,"type":"VEC3"},{"bufferView":6,"componentType":5126,"count":72,"type":"VEC3","min":[-0.11999999731779099,0.08799999952316284,0.019999999552965164],"max":[0.11999999731779099,0.22727273404598236,0.5]},{"bufferView":7,"componentType":5126,"count":72,"type":"VEC3"},{"bufferView":8,"componentType":5126,"count":120,"type":"VEC3","min":[-0.3415745794773102,-0.061574578285217285,-1.100000023841858],"max":[0.3415745794773102,0.37599998712539673,1.0219999551773071]},{"bufferView":9,"componentType":5126,"count":120,"type":"VEC3"}]}