{"asset":{"version":"2.0","generator":"samdin hullgen"},"extensionsUsed":["KHR_materials_emissive_strength"],"scene":0,"scenes":[{"nodes":[0]}],"nodes":[{"mesh":0,"name":"arcwing-sniper"}],"meshes":[{"primitives":[{"attributes":{"POSITION":0,"NORMAL":1},"material":0,"mode":4},{"attributes":{"POSITION":2,"NORMAL":3},"material":1,"mode":4},{"attributes":{"POSITION":4,"NORMAL":5},"material":2,"mode":4},{"attributes":{"POSITION":6,"NORMAL":7},"material":3,"mode":4},{"attributes":{"POSITION":8,"NORMAL":9},"material":4,"mode":4}],"name":"hull"}],"materials":[{"pbrMetallicRoughness":{"baseColorFactor":[0.20863687014525575,0.012286488356915872,0.017641954488384078,1],"metallicFactor":0.2,"roughnessFactor":0.5},"doubleSided":true},{"pbrMetallicRoughness":{"baseColorFactor":[0.05448027644244237,0.005181516702338386,0.006995410187265387,1],"metallicFactor":0.25,"roughnessFactor":0.55},"doubleSided":true},{"pbrMetallicRoughness":{"baseColorFactor":[1,0.1946178304415758,0.028426039504420793,1],"metallicFactor":0.1,"roughnessFactor":0.45},"doubleSided":true},{"pbrMetallicRoughness":{"baseColorFactor":[0.02315336617811041,0.006995410187265387,0.0024282158683907,1],"metallicFactor":0.2,"roughnessFactor":0.12},"doubleSided":true,"emissiveFactor":[0.43415363617474895,0.09305896284668745,0.013702083047289686],"extensions":{"KHR_materials_emissive_strength":{"emissiveStrength":0.4}}},{"pbrMetallicRoughness":{"baseColorFactor":[0.003035269835488375,0.010329823029626936,0.011612245179743885,1],"metallicFactor":0,"roughnessFactor":0.4},"doubleSided":true,"emissiveFactor":[1,0.26225065752969623,0.028426039504420793],"extensions":{"KHR_materials_emissive_strength":{"emissiveStrength":2.7}}},{"pbrMetallicRoughness":{"baseColorFactor":[0.003035269835488375,0.02315336617811041,0.006048833022857054,1],"metallicFactor":0,"roughnessFactor":0.4},"doubleSided":true,"emissiveFactor":[0.033104766570885055,1,0.07421356838014963],"extensions":{"KHR_materials_emissive_strength":{"emissiveStrength":2}}},{"pbrMetallicRoughness":{"baseColorFactor":[0.02315336617811041,0.003035269835488375,0.003035269835488375,1],"metallicFactor":0,"roughnessFactor":0.4},"doubleSided":true,"emissiveFactor":[1,0.033104766570885055,0.033104766570885055],"extensions":{"KHR_materials_emissive_strength":{"emissiveStrength":2}}}],"buffers":[{"byteLength":34560,"uri":"data:application/octet-stream;base64,"}],"bufferViews":[{"buffer":0,"byteOffset":0,"byteLength":6048},{"buffer":0,"byteOffset":6048,"byteLength":6048},{"buffer":0,"byteOffset":12096,"byteLength":6336},{"buffer":0,"byteOffset":18432,"byteLength":6336},{"buffer":0,"byteOffset":24768,"byteLength":576},{"buffer":0,"byteOffset":25344,"byteLength":576},{"buffer":0,"byteOffset":25920,"byteLength":864},{"buffer":0,"byteOffset":26784,"byteLength":864},{"buffer":0,"byteOffset":27648,"byteLength":3456},{"buffer":0,"byteOffset":31104,"byteLength":3456}],"accessors":[{"bufferView":0,"componentType":5126,"count":504,"type":"VEC3","min":[-1.100000023841858,-0.09238795191049576,-1.399999976158142],"max":[1.100000023841858,0.41999998688697815,1.149999976158142]},{"bufferView":1,"componentType":5126,"count":504,"type":"VEC3"},{"bufferView":2,"componentType":5126,"count":528,"type":"VEC3","min":[-1.100000023841858,-0.12999999523162842,-1.399999976158142],"max":[1.100000023841858,0.38999998569488525,1.600000023841858]},{"bufferView":3,"componentType":5126,"count":528,"type":"VEC3"},{"bufferView":4,"componentType":5126,"count":48,"type":"VEC3","min":[-1.100000023841858,0,-1.3799999952316284],"max":[1.100000023841858,0.41999998688697815,-0.25]},{"bufferView":5,"componentType":5126,"count":48,"type":"VEC3"},{"bufferView":6,"componentType":5126,"count":72,"type":"VEC3","min":[-0.10999999940395355,0.10483333468437195,0],"max":[0.10999999940395355,0.22100000083446503,0.44999998807907104]},{"bufferView":7,"componentType":5126,"count":72,"type":"VEC3"},{"bufferView":8,"componentType":5126,"count":288,"type":"VEC3","min":[-0.20929096639156342,-0.06929096579551697,-1.2799999713897705],"max":[0.20929096639156342,0.43799999356269836,1.7200000286102295]},{"bufferView":9,"componentType":5126,"count":288,"type":"VEC3"}]}