{"asset":{"version":"2.0","generator":"samdin hullgen"},"extensionsUsed":["KHR_materials_emissive_strength"],"scene":0,"scenes":[{"nodes":[0]}],"nodes":[{"mesh":0,"name":"arcwing-rammer"}],"meshes":[{"primitives":[{"attributes":{"POSITION":0,"NORMAL":1},"material":0,"mode":4},{"attributes":{"POSITION":2,"NORMAL":3},"material":1,"mode":4},{"attributes":{"POSITION":4,"NORMAL":5},"material":4,"mode":4}],"name":"hull"}],"materials":[{"pbrMetallicRoughness":{"baseColorFactor":[0.14412847085805777,0.007499032043226175,0.007499032043226175,1],"metallicFactor":0.2,"roughnessFactor":0.5},"doubleSided":true},{"pbrMetallicRoughness":{"baseColorFactor":[0.042311410620809675,0.003676507324047436,0.003676507324047436,1],"metallicFactor":0.25,"roughnessFactor":0.55},"doubleSided":true},{"pbrMetallicRoughness":{"baseColorFactor":[1,0.1946178304415758,0.028426039504420793,1],"metallicFactor":0.1,"roughnessFactor":0.45},"doubleSided":true},{"pbrMetallicRoughness":{"baseColorFactor":[0.003346535763899161,0.01520851442291271,0.03688945040110004,1],"metallicFactor":0.2,"roughnessFactor":0.12},"doubleSided":true,"emissiveFactor":[0.012286488356915872,0.10461648409110419,0.25415209433082675],"extensions":{"KHR_materials_emissive_strength":{"emissiveStrength":0.4}}},{"pbrMetallicRoughness":{"baseColorFactor":[0.003035269835488375,0.010329823029626936,0.011612245179743885,1],"metallicFactor":0,"roughnessFactor":0.4},"doubleSided":true,"emissiveFactor":[1,0.26225065752969623,0.028426039504420793],"extensions":{"KHR_materials_emissive_strength":{"emissiveStrength":2.8}}},{"pbrMetallicRoughness":{"baseColorFactor":[0.003035269835488375,0.02315336617811041,0.006048833022857054,1],"metallicFactor":0,"roughnessFactor":0.4},"doubleSided":true,"emissiveFactor":[0.033104766570885055,1,0.07421356838014963],"extensions":{"KHR_materials_emissive_strength":{"emissiveStrength":2}}},{"pbrMetallicRoughness":{"baseColorFactor":[0.02315336617811041,0.003035269835488375,0.003035269835488375,1],"metallicFactor":0,"roughnessFactor":0.4},"doubleSided":true,"emissiveFactor":[1,0.033104766570885055,0.033104766570885055],"extensions":{"KHR_materials_emissive_strength":{"emissiveStrength":2}}}],"buffers":[{"byteLength":20736,"uri":"data:application/octet-stream;base64,"}],"bufferViews":[{"buffer":0,"byteOffset":0,"byteLength":2304},{"buffer":0,"byteOffset":2304,"byteLength":2304},{"buffer":0,"byteOffset":4608,"byteLength":6336},{"buffer":0,"byteOffset":10944,"byteLength":6336},{"buffer":0,"byteOffset":17280,"byteLength":1728},{"buffer":0,"byteOffset":19008,"byteLength":1728}],"accessors":[{"bufferView":0,"componentType":5126,"count":192,"type":"VEC3","min":[-0.3100000023841858,-0.12999999523162842,-0.5199999809265137],"max":[0.3100000023841858,0.27000001072883606,0.6200000047683716]},{"bufferView":1,"componentType":5126,"count":192,"type":"VEC3"},{"bufferView":2,"componentType":5126,"count":528,"type":"VEC3","min":[-0.5799999833106995,-0.5199999809265137,-0.5199999809265137],"max":[0.5799999833106995,0.5199999809265137,0.6200000047683716]},{"bufferView":3,"componentType":5126,"count":528,"type":"VEC3"},{"bufferView":4,"componentType":5126,"count":144,"type":"VEC3","min":[-0.7400000095367432,-0.6800000071525574,-0.4399999976158142],"max":[0.7400000095367432,0.6800000071525574,0.7400000095367432]},{"bufferView":5,"componentType":5126,"count":144,"type":"VEC3"}]}