{"asset":{"version":"2.0","generator":"samdin hullgen"},"extensionsUsed":["KHR_materials_emissive_strength"],"scene":0,"scenes":[{"nodes":[0]}],"nodes":[{"mesh":0,"name":"arcwing-interceptor"}],"meshes":[{"primitives":[{"attributes":{"POSITION":0,"NORMAL":1},"material":0,"mode":4},{"attributes":{"POSITION":2,"NORMAL":3},"material":1,"mode":4},{"attributes":{"POSITION":4,"NORMAL":5},"material":2,"mode":4},{"attributes":{"POSITION":6,"NORMAL":7},"material":3,"mode":4},{"attributes":{"POSITION":8,"NORMAL":9},"material":4,"mode":4},{"attributes":{"POSITION":10,"NORMAL":11},"material":5,"mode":4},{"attributes":{"POSITION":12,"NORMAL":13},"material":6,"mode":4}],"name":"hull"}],"materials":[{"pbrMetallicRoughness":{"baseColorFactor":[0.028426039504420793,0.11443537382697373,0.6307571363461468,1],"metallicFactor":0.2,"roughnessFactor":0.5},"doubleSided":true},{"pbrMetallicRoughness":{"baseColorFactor":[0.008568125618069307,0.0295568344378088,0.1559264637078274,1],"metallicFactor":0.25,"roughnessFactor":0.55},"doubleSided":true},{"pbrMetallicRoughness":{"baseColorFactor":[1,0.1946178304415758,0.028426039504420793,1],"metallicFactor":0.1,"roughnessFactor":0.45},"doubleSided":true},{"pbrMetallicRoughness":{"baseColorFactor":[0.003346535763899161,0.01520851442291271,0.03688945040110004,1],"metallicFactor":0.2,"roughnessFactor":0.12},"doubleSided":true,"emissiveFactor":[0.012286488356915872,0.10461648409110419,0.25415209433082675],"extensions":{"KHR_materials_emissive_strength":{"emissiveStrength":0.4}}},{"pbrMetallicRoughness":{"baseColorFactor":[0.003035269835488375,0.010329823029626936,0.011612245179743885,1],"metallicFactor":0,"roughnessFactor":0.4},"doubleSided":true,"emissiveFactor":[0.033104766570885055,0.8879231178819663,1],"extensions":{"KHR_materials_emissive_strength":{"emissiveStrength":2.6}}},{"pbrMetallicRoughness":{"baseColorFactor":[0.003035269835488375,0.02315336617811041,0.006048833022857054,1],"metallicFactor":0,"roughnessFactor":0.4},"doubleSided":true,"emissiveFactor":[0.033104766570885055,1,0.07421356838014963],"extensions":{"KHR_materials_emissive_strength":{"emissiveStrength":2}}},{"pbrMetallicRoughness":{"baseColorFactor":[0.02315336617811041,0.003035269835488375,0.003035269835488375,1],"metallicFactor":0,"roughnessFactor":0.4},"doubleSided":true,"emissiveFactor":[1,0.033104766570885055,0.033104766570885055],"extensions":{"KHR_materials_emissive_strength":{"emissiveStrength":2}}}],"buffers":[{"byteLength":31968,"uri":"data:application/octet-stream;base64,"}],"bufferViews":[{"buffer":0,"byteOffset":0,"byteLength":7344},{"buffer":0,"byteOffset":7344,"byteLength":7344},{"buffer":0,"byteOffset":14688,"byteLength":5472},{"buffer":0,"byteOffset":20160,"byteLength":5472},{"buffer":0,"byteOffset":25632,"byteLength":720},{"buffer":0,"byteOffset":26352,"byteLength":720},{"buffer":0,"byteOffset":27072,"byteLength":1296},{"buffer":0,"byteOffset":28368,"byteLength":1296},{"buffer":0,"byteOffset":29664,"byteLength":576},{"buffer":0,"byteOffset":30240,"byteLength":576},{"buffer":0,"byteOffset":30816,"byteLength":288},{"buffer":0,"byteOffset":31104,"byteLength":288},{"buffer":0,"byteOffset":31392,"byteLength":288},{"buffer":0,"byteOffset":31680,"byteLength":288}],"accessors":[{"bufferView":0,"componentType":5126,"count":612,"type":"VEC3","min":[-1.649999976158142,-0.10000000149011612,-1.559999942779541],"max":[1.649999976158142,0.8799999952316284,1.7999999523162842]},{"bufferView":1,"componentType":5126,"count":612,"type":"VEC3"},{"bufferView":2,"componentType":5126,"count":456,"type":"VEC3","min":[-1.649999976158142,-0.20999999344348907,-1.559999942779541],"max":[1.649999976158142,0.3632013201713562,1.149999976158142]},{"bufferView":3,"componentType":5126,"count":456,"type":"VEC3"},{"bufferView":4,"componentType":5126,"count":60,"type":"VEC3","min":[-1.649999976158142,-0.019999999552965164,-1.5199999809265137],"max":[1.649999976158142,0.8799999952316284,0.949999988079071]},{"bufferView":5,"componentType":5126,"count":60,"type":"VEC3"},{"bufferView":6,"componentType":5126,"count":108,"type":"VEC3","min":[-0.1599999964237213,0.15000000596046448,-0.18000000715255737],"max":[0.1599999964237213,0.3959999978542328,0.7200000286102295]},{"bufferView":7,"componentType":5126,"count":108,"type":"VEC3"},{"bufferView":8,"componentType":5126,"count":48,"type":"VEC3","min":[-0.32624614238739014,0.11375385522842407,-1.4199999570846558],"max":[0.32624614238739014,0.32624614238739014,-1.4199999570846558]},{"bufferView":9,"componentType":5126,"count":48,"type":"VEC3"},{"bufferView":10,"componentType":5126,"count":24,"type":"VEC3","min":[1.6299999952316284,0.019999999552965164,-1.0499999523162842],"max":[1.7300000190734863,0.11999999731779099,-0.949999988079071]},{"bufferView":11,"componentType":5126,"count":24,"type":"VEC3"},{"bufferView":12,"componentType":5126,"count":24,"type":"VEC3","min":[-1.7300000190734863,0.019999999552965164,-1.0499999523162842],"max":[-1.6299999952316284,0.11999999731779099,-0.949999988079071]},{"bufferView":13,"componentType":5126,"count":24,"type":"VEC3"}]}