{"asset":{"version":"2.0","generator":"samdin hullgen"},"extensionsUsed":["KHR_materials_emissive_strength"],"scene":0,"scenes":[{"nodes":[0]}],"nodes":[{"mesh":0,"name":"arcwing-carrier"}],"meshes":[{"primitives":[{"attributes":{"POSITION":0,"NORMAL":1},"material":0,"mode":4},{"attributes":{"POSITION":2,"NORMAL":3},"material":1,"mode":4},{"attributes":{"POSITION":4,"NORMAL":5},"material":3,"mode":4},{"attributes":{"POSITION":6,"NORMAL":7},"material":4,"mode":4}],"name":"hull"}],"materials":[{"pbrMetallicRoughness":{"baseColorFactor":[0.10702310297826761,0.162029375639111,0.11443537382697373,1],"metallicFactor":0.2,"roughnessFactor":0.5},"doubleSided":true},{"pbrMetallicRoughness":{"baseColorFactor":[0.04091519690685319,0.06124605423161761,0.04518620438567554,1],"metallicFactor":0.25,"roughnessFactor":0.55},"doubleSided":true},{"pbrMetallicRoughness":{"baseColorFactor":[0.20507873639031693,0.2961382707983211,0.21223075741405523,1],"metallicFactor":0.1,"roughnessFactor":0.45},"doubleSided":true},{"pbrMetallicRoughness":{"baseColorFactor":[0.008023192985384994,0.021219010376003555,0.011612245179743885,1],"metallicFactor":0.2,"roughnessFactor":0.12},"doubleSided":true,"emissiveFactor":[0.028426039504420793,0.27467731206038465,0.07818742180518633],"extensions":{"KHR_materials_emissive_strength":{"emissiveStrength":0.4}}},{"pbrMetallicRoughness":{"baseColorFactor":[0.003035269835488375,0.010329823029626936,0.011612245179743885,1],"metallicFactor":0,"roughnessFactor":0.4},"doubleSided":true,"emissiveFactor":[0.07421356838014963,1,0.1946178304415758],"extensions":{"KHR_materials_emissive_strength":{"emissiveStrength":2.4}}},{"pbrMetallicRoughness":{"baseColorFactor":[0.003035269835488375,0.02315336617811041,0.006048833022857054,1],"metallicFactor":0,"roughnessFactor":0.4},"doubleSided":true,"emissiveFactor":[0.033104766570885055,1,0.07421356838014963],"extensions":{"KHR_materials_emissive_strength":{"emissiveStrength":2}}},{"pbrMetallicRoughness":{"baseColorFactor":[0.02315336617811041,0.003035269835488375,0.003035269835488375,1],"metallicFactor":0,"roughnessFactor":0.4},"doubleSided":true,"emissiveFactor":[1,0.033104766570885055,0.033104766570885055],"extensions":{"KHR_materials_emissive_strength":{"emissiveStrength":2}}}],"buffers":[{"byteLength":51264,"uri":"data:application/octet-stream;base64,"}],"bufferViews":[{"buffer":0,"byteOffset":0,"byteLength":7200},{"buffer":0,"byteOffset":7200,"byteLength":7200},{"buffer":0,"byteOffset":14400,"byteLength":9792},{"buffer":0,"byteOffset":24192,"byteLength":9792},{"buffer":0,"byteOffset":33984,"byteLength":864},{"buffer":0,"byteOffset":34848,"byteLength":864},{"buffer":0,"byteOffset":35712,"byteLength":7776},{"buffer":0,"byteOffset":43488,"byteLength":7776}],"accessors":[{"bufferView":0,"componentType":5126,"count":600,"type":"VEC3","min":[-0.6399999856948853,-0.23999999463558197,-3.549999952316284],"max":[0.6399999856948853,0.5199999809265137,3.799999952316284]},{"bufferView":1,"componentType":5126,"count":600,"type":"VEC3"},{"bufferView":2,"componentType":5126,"count":816,"type":"VEC3","min":[-0.6399999856948853,-0.5199999809265137,-3.549999952316284],"max":[0.6399999856948853,1.2000000476837158,3.5999999046325684]},{"bufferView":3,"componentType":5126,"count":816,"type":"VEC3"},{"bufferView":4,"componentType":5126,"count":72,"type":"VEC3","min":[-0.23999999463558197,0.3499999940395355,1.4500000476837158],"max":[0.23999999463558197,0.5199999809265137,2.1500000953674316]},{"bufferView":5,"componentType":5126,"count":72,"type":"VEC3"},{"bufferView":6,"componentType":5126,"count":648,"type":"VEC3","min":[-0.5877164006233215,-0.1801043450832367,-3.380000114440918],"max":[0.5877164006233215,1.2960000038146973,3.6700000762939453]},{"bufferView":7,"componentType":5126,"count":648,"type":"VEC3"}]}