{"asset":{"version":"2.0","generator":"samdin hullgen"},"extensionsUsed":["KHR_materials_emissive_strength"],"scene":0,"scenes":[{"nodes":[0]}],"nodes":[{"mesh":0,"name":"arcwing-gunship"}],"meshes":[{"primitives":[{"attributes":{"POSITION":0,"NORMAL":1},"material":0,"mode":4},{"attributes":{"POSITION":2,"NORMAL":3},"material":1,"mode":4},{"attributes":{"POSITION":4,"NORMAL":5},"material":2,"mode":4},{"attributes":{"POSITION":6,"NORMAL":7},"material":3,"mode":4},{"attributes":{"POSITION":8,"NORMAL":9},"material":4,"mode":4}],"name":"hull"}],"materials":[{"pbrMetallicRoughness":{"baseColorFactor":[0.20863687014525575,0.014443843596092545,0.014443843596092545,1],"metallicFactor":0.2,"roughnessFactor":0.5},"doubleSided":true},{"pbrMetallicRoughness":{"baseColorFactor":[0.0595112381629812,0.005181516702338386,0.005181516702338386,1],"metallicFactor":0.25,"roughnessFactor":0.55},"doubleSided":true},{"pbrMetallicRoughness":{"baseColorFactor":[1,0.1946178304415758,0.028426039504420793,1],"metallicFactor":0.1,"roughnessFactor":0.45},"doubleSided":true},{"pbrMetallicRoughness":{"baseColorFactor":[0.02315336617811041,0.006995410187265387,0.0024282158683907,1],"metallicFactor":0.2,"roughnessFactor":0.12},"doubleSided":true,"emissiveFactor":[0.43415363617474895,0.09305896284668745,0.013702083047289686],"extensions":{"KHR_materials_emissive_strength":{"emissiveStrength":0.4}}},{"pbrMetallicRoughness":{"baseColorFactor":[0.003035269835488375,0.010329823029626936,0.011612245179743885,1],"metallicFactor":0,"roughnessFactor":0.4},"doubleSided":true,"emissiveFactor":[1,0.26225065752969623,0.028426039504420793],"extensions":{"KHR_materials_emissive_strength":{"emissiveStrength":2.6}}},{"pbrMetallicRoughness":{"baseColorFactor":[0.003035269835488375,0.02315336617811041,0.006048833022857054,1],"metallicFactor":0,"roughnessFactor":0.4},"doubleSided":true,"emissiveFactor":[0.033104766570885055,1,0.07421356838014963],"extensions":{"KHR_materials_emissive_strength":{"emissiveStrength":2}}},{"pbrMetallicRoughness":{"baseColorFactor":[0.02315336617811041,0.003035269835488375,0.003035269835488375,1],"metallicFactor":0,"roughnessFactor":0.4},"doubleSided":true,"emissiveFactor":[1,0.033104766570885055,0.033104766570885055],"extensions":{"KHR_materials_emissive_strength":{"emissiveStrength":2}}}],"buffers":[{"byteLength":46080,"uri":"data:application/octet-stream;base64,"}],"bufferViews":[{"buffer":0,"byteOffset":0,"byteLength":8928},{"buffer":0,"byteOffset":8928,"byteLength":8928},{"buffer":0,"byteOffset":17856,"byteLength":11520},{"buffer":0,"byteOffset":29376,"byteLength":11520},{"buffer":0,"byteOffset":40896,"byteLength":576},{"buffer":0,"byteOffset":41472,"byteLength":576},{"buffer":0,"byteOffset":42048,"byteLength":864},{"buffer":0,"byteOffset":42912,"byteLength":864},{"buffer":0,"byteOffset":43776,"byteLength":1152},{"buffer":0,"byteOffset":44928,"byteLength":1152}],"accessors":[{"bufferView":0,"componentType":5126,"count":744,"type":"VEC3","min":[-1.0499999523162842,-0.23624613881111145,-1.3200000524520874],"max":[1.0499999523162842,0.41999998688697815,1.350000023841858]},{"bufferView":1,"componentType":5126,"count":744,"type":"VEC3"},{"bufferView":2,"componentType":5126,"count":960,"type":"VEC3","min":[-1.0499999523162842,-0.23624613881111145,-1.3200000524520874],"max":[1.0499999523162842,0.19624614715576172,1.2699999809265137]},{"bufferView":3,"componentType":5126,"count":960,"type":"VEC3"},{"bufferView":4,"componentType":5126,"count":48,"type":"VEC3","min":[-1.0499999523162842,0,-1.2200000286102295],"max":[1.0499999523162842,0.41999998688697815,-0.10000000149011612]},{"bufferView":5,"componentType":5126,"count":48,"type":"VEC3"},{"bufferView":6,"componentType":5126,"count":72,"type":"VEC3","min":[-0.15000000596046448,0.11683333665132523,0.3499999940395355],"max":[0.15000000596046448,0.24250000715255737,0.8500000238418579]},{"bufferView":7,"componentType":5126,"count":72,"type":"VEC3"},{"bufferView":8,"componentType":5126,"count":96,"type":"VEC3","min":[-0.24852976202964783,-0.2085297554731369,-1.2000000476837158],"max":[0.24852976202964783,0.16852976381778717,-1.2000000476837158]},{"bufferView":9,"componentType":5126,"count":96,"type":"VEC3"}]}