{"asset":{"version":"2.0","generator":"samdin hullgen"},"extensionsUsed":["KHR_materials_emissive_strength"],"scene":0,"scenes":[{"nodes":[0]}],"nodes":[{"mesh":0,"name":"arcwing-swarmling"}],"meshes":[{"primitives":[{"attributes":{"POSITION":0,"NORMAL":1},"material":0,"mode":4},{"attributes":{"POSITION":2,"NORMAL":3},"material":1,"mode":4},{"attributes":{"POSITION":4,"NORMAL":5},"material":2,"mode":4},{"attributes":{"POSITION":6,"NORMAL":7},"material":4,"mode":4}],"name":"hull"}],"materials":[{"pbrMetallicRoughness":{"baseColorFactor":[0.20863687014525575,0.012286488356915872,0.012286488356915872,1],"metallicFactor":0.2,"roughnessFactor":0.5},"doubleSided":true},{"pbrMetallicRoughness":{"baseColorFactor":[0.0595112381629812,0.005181516702338386,0.005181516702338386,1],"metallicFactor":0.25,"roughnessFactor":0.55},"doubleSided":true},{"pbrMetallicRoughness":{"baseColorFactor":[1,0.1946178304415758,0.028426039504420793,1],"metallicFactor":0.1,"roughnessFactor":0.45},"doubleSided":true},{"pbrMetallicRoughness":{"baseColorFactor":[0.003346535763899161,0.01520851442291271,0.03688945040110004,1],"metallicFactor":0.2,"roughnessFactor":0.12},"doubleSided":true,"emissiveFactor":[0.012286488356915872,0.10461648409110419,0.25415209433082675],"extensions":{"KHR_materials_emissive_strength":{"emissiveStrength":0.4}}},{"pbrMetallicRoughness":{"baseColorFactor":[0.003035269835488375,0.010329823029626936,0.011612245179743885,1],"metallicFactor":0,"roughnessFactor":0.4},"doubleSided":true,"emissiveFactor":[1,0.26225065752969623,0.028426039504420793],"extensions":{"KHR_materials_emissive_strength":{"emissiveStrength":2.8}}},{"pbrMetallicRoughness":{"baseColorFactor":[0.003035269835488375,0.02315336617811041,0.006048833022857054,1],"metallicFactor":0,"roughnessFactor":0.4},"doubleSided":true,"emissiveFactor":[0.033104766570885055,1,0.07421356838014963],"extensions":{"KHR_materials_emissive_strength":{"emissiveStrength":2}}},{"pbrMetallicRoughness":{"baseColorFactor":[0.02315336617811041,0.003035269835488375,0.003035269835488375,1],"metallicFactor":0,"roughnessFactor":0.4},"doubleSided":true,"emissiveFactor":[1,0.033104766570885055,0.033104766570885055],"extensions":{"KHR_materials_emissive_strength":{"emissiveStrength":2}}}],"buffers":[{"byteLength":16704,"uri":"data:application/octet-stream;base64,"}],"bufferViews":[{"buffer":0,"byteOffset":0,"byteLength":2304},{"buffer":0,"byteOffset":2304,"byteLength":2304},{"buffer":0,"byteOffset":4608,"byteLength":2016},{"buffer":0,"byteOffset":6624,"byteLength":2016},{"buffer":0,"byteOffset":8640,"byteLength":2880},{"buffer":0,"byteOffset":11520,"byteLength":2880},{"buffer":0,"byteOffset":14400,"byteLength":1152},{"buffer":0,"byteOffset":15552,"byteLength":1152}],"accessors":[{"bufferView":0,"componentType":5126,"count":192,"type":"VEC3","min":[-0.20999999344348907,-0.09000000357627869,-0.5400000214576721],"max":[0.20999999344348907,0.15000000596046448,0.6800000071525574]},{"bufferView":1,"componentType":5126,"count":192,"type":"VEC3"},{"bufferView":2,"componentType":5126,"count":168,"type":"VEC3","min":[-0.20999999344348907,-0.11999999731779099,-0.5400000214576721],"max":[0.20999999344348907,0.10000000149011612,0.3799999952316284]},{"bufferView":3,"componentType":5126,"count":168,"type":"VEC3"},{"bufferView":4,"componentType":5126,"count":240,"type":"VEC3","min":[-0.7799999713897705,-0.04500000178813934,-0.5199999809265137],"max":[0.7799999713897705,0.05999999865889549,0.15000000596046448]},{"bufferView":5,"componentType":5126,"count":240,"type":"VEC3"},{"bufferView":6,"componentType":5126,"count":96,"type":"VEC3","min":[-0.07500000298023224,-0.05081337317824364,-0.4699999988079071],"max":[0.07500000298023224,0.17973683774471283,0.4399999976158142]},{"bufferView":7,"componentType":5126,"count":96,"type":"VEC3"}]}