{"asset":{"version":"2.0","generator":"samdin hullgen"},"extensionsUsed":["KHR_materials_emissive_strength"],"scene":0,"scenes":[{"nodes":[0]}],"nodes":[{"mesh":0,"name":"arcwing-bomber"}],"meshes":[{"primitives":[{"attributes":{"POSITION":0,"NORMAL":1},"material":0,"mode":4},{"attributes":{"POSITION":2,"NORMAL":3},"material":1,"mode":4},{"attributes":{"POSITION":4,"NORMAL":5},"material":2,"mode":4},{"attributes":{"POSITION":6,"NORMAL":7},"material":3,"mode":4},{"attributes":{"POSITION":8,"NORMAL":9},"material":4,"mode":4}],"name":"hull"}],"materials":[{"pbrMetallicRoughness":{"baseColorFactor":[0.1559264637078274,0.010329823029626936,0.010329823029626936,1],"metallicFactor":0.2,"roughnessFactor":0.5},"doubleSided":true},{"pbrMetallicRoughness":{"baseColorFactor":[0.046665086336880095,0.004391442037410293,0.004391442037410293,1],"metallicFactor":0.25,"roughnessFactor":0.55},"doubleSided":true},{"pbrMetallicRoughness":{"baseColorFactor":[1,0.1946178304415758,0.028426039504420793,1],"metallicFactor":0.1,"roughnessFactor":0.45},"doubleSided":true},{"pbrMetallicRoughness":{"baseColorFactor":[0.02315336617811041,0.006995410187265387,0.0024282158683907,1],"metallicFactor":0.2,"roughnessFactor":0.12},"doubleSided":true,"emissiveFactor":[0.43415363617474895,0.09305896284668745,0.013702083047289686],"extensions":{"KHR_materials_emissive_strength":{"emissiveStrength":0.4}}},{"pbrMetallicRoughness":{"baseColorFactor":[0.003035269835488375,0.010329823029626936,0.011612245179743885,1],"metallicFactor":0,"roughnessFactor":0.4},"doubleSided":true,"emissiveFactor":[1,0.26225065752969623,0.028426039504420793],"extensions":{"KHR_materials_emissive_strength":{"emissiveStrength":2.6}}},{"pbrMetallicRoughness":{"baseColorFactor":[0.003035269835488375,0.02315336617811041,0.006048833022857054,1],"metallicFactor":0,"roughnessFactor":0.4},"doubleSided":true,"emissiveFactor":[0.033104766570885055,1,0.07421356838014963],"extensions":{"KHR_materials_emissive_strength":{"emissiveStrength":2}}},{"pbrMetallicRoughness":{"baseColorFactor":[0.02315336617811041,0.003035269835488375,0.003035269835488375,1],"metallicFactor":0,"roughnessFactor":0.4},"doubleSided":true,"emissiveFactor":[1,0.033104766570885055,0.033104766570885055],"extensions":{"KHR_materials_emissive_strength":{"emissiveStrength":2}}}],"buffers":[{"byteLength":39168,"uri":"data:application/octet-stream;base64,"}],"bufferViews":[{"buffer":0,"byteOffset":0,"byteLength":6048},{"buffer":0,"byteOffset":6048,"byteLength":6048},{"buffer":0,"byteOffset":12096,"byteLength":9792},{"buffer":0,"byteOffset":21888,"byteLength":9792},{"buffer":0,"byteOffset":31680,"byteLength":576},{"buffer":0,"byteOffset":32256,"byteLength":576},{"buffer":0,"byteOffset":32832,"byteLength":864},{"buffer":0,"byteOffset":33696,"byteLength":864},{"buffer":0,"byteOffset":34560,"byteLength":2304},{"buffer":0,"byteOffset":36864,"byteLength":2304}],"accessors":[{"bufferView":0,"componentType":5126,"count":504,"type":"VEC3","min":[-0.949999988079071,-0.21553711593151093,-1.2999999523162842],"max":[0.949999988079071,0.6200000047683716,1.25]},{"bufferView":1,"componentType":5126,"count":504,"type":"VEC3"},{"bufferView":2,"componentType":5126,"count":816,"type":"VEC3","min":[-0.949999988079071,-0.41543278098106384,-1.2999999523162842],"max":[0.949999988079071,0.18000000715255737,0.8500000238418579]},{"bufferView":3,"componentType":5126,"count":816,"type":"VEC3"},{"bufferView":4,"componentType":5126,"count":48,"type":"VEC3","min":[-0.949999988079071,-0.009999999776482582,-1.1200000047683716],"max":[0.949999988079071,0.6200000047683716,0.05000000074505806]},{"bufferView":5,"componentType":5126,"count":48,"type":"VEC3"},{"bufferView":6,"componentType":5126,"count":72,"type":"VEC3","min":[-0.15000000596046448,0.16181817650794983,0.25],"max":[0.15000000596046448,0.30181819200515747,0.75]},{"bufferView":7,"componentType":5126,"count":72,"type":"VEC3"},{"bufferView":8,"componentType":5126,"count":192,"type":"VEC3","min":[-0.6493431329727173,-0.41543278098106384,-1.159999966621399],"max":[0.6493431329727173,0.08934313803911209,0.8460000157356262]},{"bufferView":9,"componentType":5126,"count":192,"type":"VEC3"}]}