{"asset":{"version":"2.0","generator":"samdin hullgen"},"extensionsUsed":["KHR_materials_emissive_strength"],"scene":0,"scenes":[{"nodes":[0]}],"nodes":[{"mesh":0,"name":"whale"}],"meshes":[{"primitives":[{"attributes":{"POSITION":0,"NORMAL":1},"material":0,"mode":4},{"attributes":{"POSITION":2,"NORMAL":3},"material":1,"mode":4},{"attributes":{"POSITION":4,"NORMAL":5},"material":2,"mode":4}],"name":"hull"}],"materials":[{"pbrMetallicRoughness":{"baseColorFactor":[0.042311410620809675,0.10224173308810132,0.16826940018969075,1],"metallicFactor":0.2,"roughnessFactor":0.5},"doubleSided":true},{"pbrMetallicRoughness":{"baseColorFactor":[0.5840784178911641,0.6583748172794485,0.6866853124353135,1],"metallicFactor":0.25,"roughnessFactor":0.55},"doubleSided":true},{"pbrMetallicRoughness":{"baseColorFactor":[0.006995410187265387,0.014443843596092545,0.02518685962736163,1],"metallicFactor":0.1,"roughnessFactor":0.45},"doubleSided":true},{"pbrMetallicRoughness":{"baseColorFactor":[0.003346535763899161,0.01520851442291271,0.03688945040110004,1],"metallicFactor":0.2,"roughnessFactor":0.12},"doubleSided":true,"emissiveFactor":[0.012286488356915872,0.10461648409110419,0.25415209433082675],"extensions":{"KHR_materials_emissive_strength":{"emissiveStrength":0.4}}},{"pbrMetallicRoughness":{"baseColorFactor":[0.003035269835488375,0.010329823029626936,0.011612245179743885,1],"metallicFactor":0,"roughnessFactor":0.4},"doubleSided":true,"emissiveFactor":[0.3467040563550296,0.6866853124353135,0.8069522576692516],"extensions":{"KHR_materials_emissive_strength":{"emissiveStrength":2.6}}},{"pbrMetallicRoughness":{"baseColorFactor":[0.003035269835488375,0.02315336617811041,0.006048833022857054,1],"metallicFactor":0,"roughnessFactor":0.4},"doubleSided":true,"emissiveFactor":[0.033104766570885055,1,0.07421356838014963],"extensions":{"KHR_materials_emissive_strength":{"emissiveStrength":2}}},{"pbrMetallicRoughness":{"baseColorFactor":[0.02315336617811041,0.003035269835488375,0.003035269835488375,1],"metallicFactor":0,"roughnessFactor":0.4},"doubleSided":true,"emissiveFactor":[1,0.033104766570885055,0.033104766570885055],"extensions":{"KHR_materials_emissive_strength":{"emissiveStrength":2}}}],"buffers":[{"byteLength":17856,"uri":"data:application/octet-stream;base64,"}],"bufferViews":[{"buffer":0,"byteOffset":0,"byteLength":4320},{"buffer":0,"byteOffset":4320,"byteLength":4320},{"buffer":0,"byteOffset":8640,"byteLength":2304},{"buffer":0,"byteOffset":10944,"byteLength":2304},{"buffer":0,"byteOffset":13248,"byteLength":2304},{"buffer":0,"byteOffset":15552,"byteLength":2304}],"accessors":[{"bufferView":0,"componentType":5126,"count":360,"type":"VEC3","min":[-0.9774987101554871,-0.355584979057312,-1.626964807510376],"max":[0.9774987101554871,0.4826797544956207,1.7200000286102295]},{"bufferView":1,"componentType":5126,"count":360,"type":"VEC3"},{"bufferView":2,"componentType":5126,"count":192,"type":"VEC3","min":[-0.9774987101554871,-0.355584979057312,-1.626964807510376],"max":[0.9774987101554871,0.3119809329509735,1.2999999523162842]},{"bufferView":3,"componentType":5126,"count":192,"type":"VEC3"},{"bufferView":4,"componentType":5126,"count":192,"type":"VEC3","min":[-0.19499999284744263,-0.02309698797762394,1.0269030332565308],"max":[0.19499999284744263,0.02309698797762394,1.0730969905853271]},{"bufferView":5,"componentType":5126,"count":192,"type":"VEC3"}]}